<?xml version="1.0" encoding="UTF-8"?>
<svg id="Layer_2" data-name="Layer 2" xmlns="http://www.w3.org/2000/svg" viewBox="0 0 184.25 184.25">
  <defs>
    <style>
      .cls-1 {
        fill: #c6d7fe;
        stroke-width: 0px;
      }
    </style>
  </defs>
  <path class="cls-1" d="M15.54,135.79c1.01,1.91,3.87,2.34,5.77,2.77,3.34.75,6.73,1.32,10.11,1.88,11.11,1.84,22.27,3.34,33.43,4.8,13.06,1.71,26.14,3.29,39.24,4.74,11.07,1.23,22.15,2.4,33.25,3.26,3.53.27,7.06.54,10.6.62,1.9.04,4.39.29,6.09-.73,1.31-.79,1.97-2.35,1.57-3.84v1.73c4.25-26.05,8.12-52.17,11.24-78.39.83-6.92,1.6-13.85,2.3-20.79.19-1.91-1.66-3.04-3.25-3.25-4.52-.61-9.04-1.21-13.56-1.82l-32.43-4.36-39.21-5.27c-11.33-1.52-22.66-3.04-33.99-4.57l-11.12-1.49c-1.75-.23-3.53-.6-5.29-.71-.08,0-.16-.02-.24-.03-1.26-.17-2.94,1.12-3.13,2.39-4.02,25.74-6.98,51.65-9.56,77.57-.79,7.94-1.54,15.89-2.26,23.84-.16,1.75,1.61,3.25,3.25,3.25,1.89,0,3.09-1.49,3.25-3.25,2.41-26.56,5.11-53.19,8.67-79.57.91-6.71,1.88-13.42,2.92-20.12l-3.13,2.39c4.52.61,9.04,1.21,13.56,1.82l32.43,4.36,39.21,5.27c11.33,1.52,22.66,3.04,33.99,4.57l11.12,1.49c1.76.24,3.53.56,5.29.71.08,0,.16.02.24.03l-3.25-3.25c-3.1,30.48-7.43,60.82-12.28,91.06-.32,1.97-.65,3.93-.95,5.9-.07.43-.19,3.65-.19,1.41,0-1.17.6-2.13,1.53-2.69-.42.26,1.06-.41.49-.21-.52.18-.57,0,.34-.02-1.17.02-2.32.1-3.49.08-4.52-.1-9.05-.47-13.56-.85-14.58-1.21-29.12-2.84-43.65-4.55-8.13-.96-16.25-1.96-24.37-3.01-1.89-.25-3.78-.49-5.67-.75-.46-.06-.93-.12-1.39-.19-.18-.02-.98-.13-.06,0-.23-.03-.46-.06-.69-.09-.98-.13-1.96-.27-2.94-.4-3.49-.48-6.97-.97-10.46-1.48-5.58-.82-11.17-1.66-16.72-2.66-1.88-.34-3.77-.69-5.64-1.12-1.05-.24-2.1-.68-3.14-.88,1.14.22.75.38.38.14.26.18.74.57.96.98-.82-1.55-2.98-2.03-4.45-1.17-1.57.92-1.99,2.89-1.17,4.45Z"/>
  <path class="cls-1" d="M24.27,79.72c16.87,2.16,33.75,4.31,50.64,6.37,17.98,2.19,35.98,4.27,54,6.16,10.57,1.11,21.16,2.15,31.74,3.12,1.26.11,2.95-1.08,3.13-2.39.77-5.52,1.55-11.03,2.32-16.55.2-1.46-.14-2.88-1.49-3.67-1.24-.72-2.93-.52-3.94.51h0c.48-.28.96-.56,1.43-.84,1.17-.34,1.04-.05.58-.14-.24-.04-.5-.05-.74-.08-.92-.11-1.84-.22-2.76-.34-3.35-.42-6.7-.85-10.05-1.28-10.87-1.4-21.74-2.81-32.61-4.23-13.05-1.7-26.09-3.4-39.14-5.1-11.24-1.46-22.47-2.92-33.71-4.36-3.69-.47-7.38-.94-11.07-1.4-1.72-.21-3.47-.54-5.2-.62-.65-.03-1.27.12-1.85.43-3.67,2-.4,7.62,3.28,5.61-1.87,1.02-2.13.33-1.33.46.25.04.51.05.76.08.95.11,1.89.22,2.83.34,3.38.41,6.75.84,10.13,1.28,10.87,1.39,21.73,2.8,32.59,4.21,13.09,1.7,26.17,3.41,39.26,5.11,11.24,1.46,22.47,2.93,33.71,4.38,3.65.47,7.3.94,10.96,1.4,1.66.21,3.39.57,5.06.61.92.02,1.81-.27,2.47-.94l-5.43-3.16c-.77,5.52-1.55,11.03-2.32,16.55l3.13-2.39c-18.6-1.7-37.19-3.64-55.75-5.74-17.54-1.99-35.06-4.13-52.57-6.33-9.36-1.18-18.71-2.37-28.06-3.57-1.74-.22-3.25,1.65-3.25,3.25,0,1.94,1.5,3.03,3.25,3.25h0Z"/>
</svg>