<?xml version="1.0" encoding="UTF-8"?>
<svg id="Layer_2" data-name="Layer 2" xmlns="http://www.w3.org/2000/svg" viewBox="0 0 184.25 184.25">
  <defs>
    <style>
      .cls-1 {
        fill: #c6d7fe;
        stroke-width: 0px;
      }
    </style>
  </defs>
  <path class="cls-1" d="M35.11,45.28c1.13-1.2,2.37-2.3,3.64-3.34.26-.21.52-.42.78-.63-.71.56.33-.24.47-.35.67-.49,1.36-.96,2.07-1.4.65-.41,1.32-.8,2.01-1.15.38-.2.77-.38,1.16-.56.54-.26.03-.01-.07.03.28-.11.55-.21.83-.31.75-.26,1.5-.42,2.27-.59.58-.13-.04.01-.15.02.2-.01.39-.04.59-.04.43-.02.86.01,1.29.03-.9-.02.25.06.51.13.15.04.3.11.45.14.73.15-.41-.22,0-.02.33.16.64.38.96.54.69.34-.3-.28.06.03.24.2.47.41.7.64,1.09,1.1,1.84,2.34,2.23,3.67.13.45.22.89.31,1.35.12.62,0,.1,0-.03.02.24.04.47.06.71.02.44.03.87.01,1.31,0,.3-.03.6-.05.9-.01.14-.13,1.02-.03.36-.73,4.88-2.85,9.15-5.14,13.45s-4.73,8.29-7,12.48c-4.37,8.08-8.54,16.55-10.92,25.46-2.1,7.84-2.78,16.97,3.82,22.92,3.67,3.3,8.57,4.27,13.23,2.6,5.07-1.82,9.29-5.51,12.9-9.4,4.84-5.22,9.02-11.04,13.68-16.41,2.77-3.19,5.63-6.29,8.67-9.22s5.91-5.41,9.13-7.56c1.62-1.08,3.3-2.07,5.05-2.91.17-.08.34-.16.51-.24,0,0,.83-.36.37-.17s.38-.15.37-.14c.17-.07.34-.13.51-.19.83-.3,1.67-.56,2.53-.77.42-.1.84-.19,1.26-.26.17-.03.33-.05.5-.08-.86.14-.02.01.14,0,.83-.07,1.66-.09,2.49-.04.16,0,.33.03.49.04.81.02-.58-.11.05,0,.51.09,1.02.17,1.53.27,1.07.22,2.13.52,3.16.88.3.1.59.22.89.33.09.03.57.25.08.03.46.21.92.43,1.37.67.87.46,1.71.98,2.52,1.55.16.11.31.23.47.34-.56-.42.19.15.25.2.29.24.58.49.86.75.73.66,1.41,1.37,2.05,2.12.13.15.86,1.07.45.53.28.37.55.74.81,1.12.51.75.99,1.53,1.43,2.33.41.75.78,1.51,1.14,2.29.07.16.3.73.04.08.07.16.13.33.2.49.19.49.37.98.54,1.48.51,1.51.92,3.06,1.22,4.63.08.39.14.79.21,1.18.03.15.05.31.07.47-.13-.83-.03-.27-.01-.06.08.77.16,1.54.19,2.31.09,1.98-.1,3.95-.34,5.92-.03.23-.06.45-.09.68-.05.43.13-.92.04-.31-.02.11-.03.22-.05.33-.09.61-.18,1.22-.27,1.83-.2,1.28-.42,2.55-.67,3.82-.56,2.94-1.23,5.86-2.01,8.75-.85,3.13-1.84,6.23-3.03,9.25-.15.39-.31.77-.47,1.16-.23.55,0,.01.04-.09-.08.19-.16.38-.25.57-.35.79-.71,1.58-1.09,2.35-.67,1.36-1.4,2.7-2.21,3.99-.41.66-.83,1.3-1.28,1.93-.11.15-.69.94-.42.58.25-.33-.46.57-.58.71-.9,1.06-1.87,2.06-2.95,2.95-.13.11-.27.22-.4.33.06-.05.62-.44.17-.14-.28.19-.55.39-.84.58-.56.36-1.15.69-1.75.98-.12.06-.24.11-.36.17-.63.32.72-.23.04-.02-.25.08-.5.18-.75.26-.68.22-1.36.32-2.05.49-.44.11.86-.05.16-.02-.14,0-.27.03-.41.04-.35.03-.7.04-1.04.04s-.71-.01-1.07-.04c-.14-.01-.29-.03-.44-.04-.75-.02.73.14-.02,0-1.09-.21-2.15-.44-3.19-.82-.13-.05-.37-.21-.5-.19.41-.04.76.35.29.12-.08-.04-.16-.07-.24-.11-.39-.18-.77-.39-1.15-.6s-.73-.44-1.07-.69c-.13-.09-.26-.24-.41-.3.66.27.56.46.26.2-.09-.08-.19-.16-.29-.24-.6-.52-1.14-1.09-1.66-1.69-.03-.04-.24-.24-.24-.29,0-.04.53.75.28.36-.11-.17-.25-.34-.36-.51-.24-.34-.46-.7-.66-1.06-.19-.33-.36-.66-.53-1-.08-.17-.15-.42-.26-.57.54.71.2.49.02.01-.29-.79-.52-1.59-.7-2.41-.04-.21-.09-.43-.12-.64-.03-.17-.14-.91-.04-.22s0-.06-.02-.23c-.02-.25-.04-.49-.06-.74-.05-.89-.04-1.79.03-2.68.02-.23.05-.47.07-.7.07-.78-.13.76-.01.09.09-.5.17-1,.28-1.49.21-.92.48-1.83.8-2.72.09-.24.18-.48.27-.72.29-.77-.32.68.04-.08.22-.48.45-.96.69-1.43.48-.92,1.02-1.82,1.61-2.68.16-.23.32-.47.49-.7.14-.19.81-1.01.12-.17.38-.46.74-.92,1.14-1.36.8-.9,1.65-1.76,2.55-2.56.46-.41.93-.81,1.4-1.2.1-.08.21-.16.31-.25.53-.44-.48.34-.1.08.3-.22.6-.45.9-.66,1.12-.8,2.29-1.54,3.49-2.23,1.29-.73,2.61-1.4,3.96-2.01.16-.07,1.37-.58.54-.24.34-.14.68-.28,1.02-.41.82-.32,1.65-.62,2.48-.9,7.75-2.61,14.57-3.42,22.6-3.57,4.83-.09,9.66.16,14.47.62,1.75.17,3.25-1.62,3.25-3.25,0-1.9-1.5-3.08-3.25-3.25-16.28-1.58-34.36-.83-48.83,7.67-8.78,5.16-15.95,13.65-16.79,24.1-.68,8.36,3.77,16.36,11.63,19.53,5.42,2.19,11.74,1.66,16.63-1.58,5.48-3.63,9.11-9.49,11.72-15.4,2.75-6.22,4.67-12.75,6.05-19.4.96-4.65,1.93-9.5,2.01-14.26.12-6.96-2-14.35-5.93-20.11-4.84-7.09-13.04-12.22-21.82-12.07-8.32.14-15.77,5.2-21.89,10.37-6.52,5.51-12.17,12-17.58,18.58-5.03,6.13-9.9,13.4-16.68,17.46-.5.3-1.02.58-1.54.84.01,0-1.01.44-.45.22-.2.08-.41.16-.61.23-.5.17-1.01.32-1.52.43-.2.04-.4.08-.6.11.69-.11-.33,0-.48.01-.25,0-.49-.01-.74,0-.9.02.37.09-.16,0-.44-.08-.86-.21-1.29-.32-.84-.23.44.29-.34-.14-.18-.1-.37-.19-.55-.3-.23-.14-.46-.28-.68-.44-.18-.13-.18-.13,0,0-.18-.15-.35-.3-.52-.46-.78-.72-1.38-1.42-1.92-2.29-.18-.29-.33-.59-.49-.88-.09-.17-.33-.87-.04-.06-.08-.22-.16-.43-.24-.65-.25-.76-.42-1.55-.54-2.34.12.8-.01-.25-.03-.52-.03-.48-.05-.97-.04-1.45,0-.93.06-1.86.16-2.79.02-.19.04-.39.07-.58-.1.76.04-.22.05-.31.09-.55.19-1.1.3-1.65.45-2.19,1.05-4.34,1.75-6.46,1.51-4.59,3.15-8.33,5.23-12.64s4.15-8.14,6.41-12.12c2.72-4.79,5.54-9.52,7.7-14.6,1.83-4.3,3.43-9.06,2.88-13.8-.52-4.46-2.9-8.97-6.91-11.25-7.09-4.04-15.23,1-20.7,5.51-1.24,1.02-2.46,2.1-3.56,3.28-1.2,1.28-1.27,3.33,0,4.6s3.39,1.28,4.6,0h0Z"/>
</svg>