<svg width="40" height="40" viewBox="0 0 40 40" fill="none" xmlns="http://www.w3.org/2000/svg">
<path d="M20 4C11.2 4 4 11.2129 4 20.0964C4 28.1285 9.85599 34.7952 17.504 36V24.755H13.44V20.0964H17.504V16.5462C17.504 12.5141 19.888 10.2972 23.552 10.2972C25.296 10.2972 27.12 10.6024 27.12 10.6024V14.5703H25.104C23.12 14.5703 22.496 15.8072 22.496 17.0763V20.0964H26.944L26.224 24.755H22.496V36C26.2663 35.4022 29.6995 33.4707 32.1758 30.5543C34.6522 27.6379 36.0085 23.9287 36 20.0964C36 11.2129 28.8 4 20 4Z" fill="#101828"/>
</svg>
