<?xml version="1.0" encoding="UTF-8"?>
<svg id="Layer_2" data-name="Layer 2" xmlns="http://www.w3.org/2000/svg" viewBox="0 0 184.25 184.25">
  <defs>
    <style>
      .cls-1 {
        fill: #c6d7fe;
        stroke-width: 0px;
      }
    </style>
  </defs>
  <path class="cls-1" d="M17.85,150.76c-.46-3.48-.57-7.02-.55-10.52s.22-6.67.65-9.97c-.12.95.06-.4.09-.58.06-.4.13-.81.2-1.21.17-.97.36-1.93.58-2.89.4-1.75.9-3.48,1.51-5.17.14-.38.29-.75.43-1.13.28-.77-.3.63.04-.11.1-.22.19-.44.29-.66.37-.79.76-1.57,1.2-2.32s.9-1.46,1.39-2.16c.09-.13.18-.25.27-.37-.5.69-.04.06.06-.07.3-.35.59-.7.91-1.04.58-.62,1.22-1.16,1.84-1.73.41-.38-.03.02-.11.08.19-.14.37-.28.56-.41.38-.27.77-.52,1.18-.76.37-.22.76-.43,1.14-.62.18-.09.36-.17.54-.26.73-.37-.66.22.12-.05,1.38-.47,2.75-.93,4.15-1.32,5.51-1.54,10.55-2.21,16.22-2.34,3.94-.09,7.92.2,11.82-.4,3.67-.56,6.74-2.62,8.29-6.06,2.76-6.1-.6-12.26-4.96-16.58-1.06-1.05-2.2-2-3.38-2.91-1.11-.86-2.41-1.72-3.19-2.37-2.04-1.69-3.94-3.7-5.38-5.77-3.04-4.37-4.82-9.2-4.22-14.47-.11.98.06-.26.11-.51.09-.48.2-.95.33-1.42.24-.91.53-1.81.87-2.69.1-.25.19-.5.3-.75-.26.63-.02.06.05-.1.22-.46.43-.92.66-1.37.48-.93,1-1.84,1.57-2.71.32-.49.66-.96,1-1.44.06-.09.37-.49.03-.05.18-.23.37-.46.56-.69.7-.84,1.45-1.65,2.25-2.41.44-.42.89-.82,1.36-1.21.16-.13.31-.26.47-.38-.52.41.29-.2.32-.23.92-.66,1.89-1.25,2.89-1.78,1.61-.84,4.13-1.67,6.13-1.94.61-.08,2.04-.17,3-.15.28,0,.55.02.83.04.17.01.34.03.51.04.88.09,0,.06-.01-.01,0,0,3.52.82,3.84.93.29.1.59.21.88.32.18.07.35.14.53.21-.05-.02-.74-.34-.25-.1.7.34,1.39.65,2.07,1.03.57.32,1.13.66,1.67,1.03.33.22.64.46.97.69.16.11.42.39-.18-.14.2.18.42.33.62.51,1.14.97,2.15,2.04,3.1,3.19-.63-.77.11.16.23.33.22.31.43.63.63.95.43.69.79,1.4,1.15,2.12.08.17.36.86.02,0,.05.13.11.26.16.4.14.37.28.74.4,1.12.26.81.47,1.64.63,2.47.05.25.14,1.44.09.49.02.47.1.94.12,1.4.05.9.04,1.8-.02,2.69-.03.43-.07.85-.12,1.27.09-.85,0,.03-.03.18-.04.27-.09.53-.14.79-.2,1.01-.45,2.01-.76,3-.74,2.4-1.3,3.64-2.55,5.95-1.33,2.45-2.88,4.79-4.59,6.99-1.97,2.54-4.17,4.92-6.44,7.19-2.95,2.97,1.64,7.57,4.6,4.6,7.94-7.98,15.46-17.88,16.49-29.46.65-7.33-2.21-14.64-7.61-19.63-4.59-4.24-10.81-7.08-17.13-7.1-10.43-.03-19.55,6.51-24.46,15.46-2.05,3.73-3.5,7.9-3.71,12.18-.32,6.3,2.29,12.6,6.04,17.55,1.8,2.38,3.79,4.56,6.13,6.41s4.77,3.43,6.86,5.71c.91.99,1.58,1.86,2.26,3.07.5.9,1.02,2.31,1.01,3.02-.01,1.06-.07,1.72-.67,2.73-.16.28-.35.54-.54.81.04-.06.54-.57.18-.25-.12.11-.23.25-.35.37-.08.08-.16.15-.25.23-.26.21-.17.15.27-.2-.09.17-.54.34-.69.44-.08.05-.35.23-.45.22.44.02.65-.23.15-.07-.66.21-1.38.28-2.03.5-.42.14.86-.08.18-.02-.2.02-.41.04-.61.06-.39.03-.79.06-1.18.08-.91.04-1.82.05-2.73.05-5.08.02-10.1.08-15.14.79-3.26.46-6.49,1.15-9.65,2.08-2.35.69-4.7,1.49-6.81,2.77-3.32,2.02-6.01,4.95-8,8.28-3.98,6.65-5.4,14.62-5.93,22.25-.35,5.06-.28,10.19.26,15.24.03.26.06.51.09.77.23,1.74,1.33,3.25,3.25,3.25,1.58,0,3.48-1.5,3.25-3.25h0Z"/>
  <path class="cls-1" d="M95.65,150.76c.23-6.5.35-13,.4-19.51.04-5.16.03-10.33-.14-15.49-.13-4.04-.25-8.17-1.02-12.15-.42-2.2-1.46-3.96-3.12-5.52-3.33-3.14-7.68-3.69-12.07-3.7s-4.19,6.49,0,6.5c.81,0,1.63,0,2.44.05.39.02.78.05,1.17.09s.02,0-.05,0c.27.04.53.09.79.15.36.08.72.17,1.08.29.2.06.4.13.6.21-.07-.03-.38-.17-.05,0s.66.36.98.56c.05.03.47.36.14.1.18.15.35.31.52.47.45.44.69.78,1,1.21.45.6-.23-.8-.07-.19.13.51.28,1,.38,1.51.06.31.11.63.16.94.02.13.12.81.03.16s.01.12.03.28c.1.86.18,1.73.24,2.6.16,2.1.26,4.21.32,6.32.31,9.44.16,18.9-.06,28.34-.05,2.26-.11,4.52-.19,6.78-.06,1.76,1.54,3.25,3.25,3.25,1.81,0,3.19-1.49,3.25-3.25h0Z"/>
  <path class="cls-1" d="M110.77,150.76c-.18-5.52-.29-11.04-.34-16.57-.04-4.28-.04-8.55.08-12.83.05-1.82.12-3.64.25-5.46.05-.71.12-1.42.19-2.13.01-.11.03-.22.04-.32.06-.62-.15.85-.03.26.12-.62.22-1.25.35-1.87.35-1.71.78-3.41,1.34-5.06.49-1.46.73-2.07,1.53-3.49.28-.51.59-1,.92-1.48.06-.09.63-.81.15-.22.19-.24.39-.47.6-.7.37-.4.78-.75,1.17-1.13.56-.55-.56.32.1-.08.27-.16.52-.35.79-.51,3.57-2.16.31-7.79-3.28-5.61-4.56,2.76-7.09,7.62-8.59,12.57-1.24,4.1-1.74,8.27-1.93,12.53-.37,8.51-.21,17.04-.01,25.55.05,2.19.1,4.37.18,6.56.06,1.75,1.45,3.25,3.25,3.25s3.31-1.49,3.25-3.25h0Z"/>
  <path class="cls-1" d="M171.92,151.36c1.24-6.16,1.66-12.61,1.51-18.88-.26-10.88-2.55-22.96-10.58-30.93-2.05-2.04-4.47-3.78-7.09-5.01-3.38-1.59-7-2.23-10.51-3.45-3.22-1.12-6.46-2.7-9.57-4.85-.32-.23-.64-.46-.96-.69-.51-.36-.14-.1-.04-.02-.19-.15-.38-.3-.56-.45-.65-.53-1.29-1.08-1.9-1.66-1.1-1.03-2.14-2.14-3.1-3.31-.14-.17-.27-.33-.4-.5.07.09.39.53.04.05-.2-.27-.4-.54-.59-.81-.43-.6-.83-1.22-1.22-1.84-.7-1.13-1.33-2.31-1.89-3.51-.13-.27-.25-.55-.37-.82.39.87-.07-.17-.14-.35-.24-.6-.45-1.21-.65-1.82-.37-1.12-.68-2.26-.92-3.42-.11-.49-.2-.99-.28-1.49-.03-.19-.16-.54-.11-.72-.09.35.09.72.05.33-.02-.17-.04-.35-.06-.52-.1-.91-.15-1.83-.15-2.74,0-.41.01-.81.03-1.22.01-.2.03-.4.04-.6.02-.16.11-.9.01-.19s.06-.35.12-.58c.06-.29.15-.57.23-.86.21-.74-.2.28.09-.26.16-.31.32-.62.5-.92.1-.16.7-.95.27-.43.29-.35.59-.68.92-1,.26-.25.54-.5.83-.73-.51.4.31-.19.48-.29.36-.22.73-.41,1.11-.61.44-.23-.46.17,0,0,.22-.08.44-.17.67-.24.41-.13.82-.23,1.24-.32.1-.02.69-.1.27-.05s.18,0,.28,0c.44-.01.87,0,1.31.01.13,0,.62.09.01-.01.25.04.49.09.73.15,1.65.4,2.78,1.12,4.12,2.53,2.49,2.63,3.07,5.78,2.75,9.51-.02.21-.04.42-.06.63-.05.54.08-.47,0,.06-.07.45-.15.89-.24,1.34-.16.79-.36,1.57-.59,2.34-.2.68-.42,1.35-.67,2.01-.1.27-.21.54-.31.8-.33.86.25-.52-.1.23-.2.44-.4.89-.63,1.31-.83,1.55-.39,3.54,1.17,4.45s3.61.39,4.45-1.17c2.85-5.32,4.3-11.9,3.15-17.87-.88-4.54-3.86-8.79-7.9-11.07-3.77-2.12-8.2-2.27-12.15-.58-3.58,1.53-6.49,4.46-7.84,8.13-.58,1.6-.74,3.38-.78,5.06-.1,4.97,1.18,9.92,3.15,14.44,2.58,5.92,6.78,10.95,11.9,14.86,3.18,2.42,6.69,4.26,10.4,5.75,2.03.82,4.13,1.49,6.25,2.03.81.21,1.63.4,2.43.65.37.12.74.24,1.11.37.23.08,1.37.55.64.23,1.33.59,2.61,1.27,3.82,2.09.26.18.51.37.77.54.47.32-.03-.02-.1-.09.15.12.3.24.45.36.56.46,1.1.95,1.61,1.47.43.43.84.87,1.23,1.33.22.26.43.52.65.79.3.38-.46-.65-.03-.03.11.15.22.3.33.46.79,1.11,1.49,2.28,2.11,3.5.3.58.56,1.17.84,1.75.25.52-.02-.06-.06-.14.07.18.15.35.22.53.14.36.28.71.41,1.08.46,1.27.86,2.56,1.2,3.87s.64,2.71.88,4.08c.12.68.22,1.37.32,2.06-.1-.74-.01-.07.03.28.04.38.09.76.12,1.14.5,4.94.46,9.93.07,14.88-.08.94-.17,1.89-.27,2.83-.04.4-.09.81-.14,1.21-.02.2-.05.4-.08.59-.11.86.1-.68.02-.13-.14.98-.29,1.95-.46,2.93-.02.14-.05.27-.08.41-.35,1.72.49,3.51,2.27,4,1.6.44,3.65-.54,4-2.27h0Z"/>
</svg>