<svg width="337" height="337" viewBox="0 0 337 337" fill="none" xmlns="http://www.w3.org/2000/svg">
<path d="M97.79 133.293L97.9416 132.161C147.061 139.1 196.236 145.576 245.466 151.587M97.79 133.293C97.4613 133.246 97.1326 133.2 96.8039 133.153L96.7937 133.152L96.7937 133.152C96.7488 133.145 96.7041 133.137 96.6599 133.129L94.6542 148.104C94.742 148.014 94.836 147.93 94.9359 147.851L95.6424 148.748L94.9359 147.851C95.2279 147.621 95.5581 147.451 95.9076 147.347M97.79 133.293C146.546 140.181 195.356 146.611 244.221 152.585M97.79 133.293L95.9076 147.347M95.9076 147.347L95.7285 148.684C96.0835 148.438 96.5175 148.329 96.9489 148.38C145.883 154.336 194.864 159.502 243.892 163.877M95.9076 147.347C96.2851 147.235 96.685 147.199 97.0837 147.246L97.0869 147.247C145.655 153.158 194.27 158.291 242.931 162.645M243.892 163.877C244.551 159.8 245.076 155.701 245.466 151.587M243.892 163.877L242.764 163.694C242.821 163.345 242.877 162.995 242.931 162.645M243.892 163.877L243.993 162.74C243.639 162.708 243.285 162.676 242.931 162.645M245.466 151.587L245.327 152.72C244.959 152.675 244.59 152.63 244.221 152.585M245.466 151.587L244.329 151.479C244.294 151.848 244.258 152.216 244.221 152.585M244.221 152.585C243.882 155.95 243.452 159.304 242.931 162.645M92.1222 128.851C92.1158 128.883 92.1106 128.914 92.1068 128.946C92.044 129.475 92.1089 129.976 92.2923 130.422L85.2911 182.695L85.289 182.712C85.1592 183.804 85.5879 184.666 86.2486 185.214C84.926 194.503 83.758 203.815 82.7468 213.132C82.6693 213.795 82.8047 214.404 83.1065 214.91C83.3085 215.979 84.092 216.987 85.479 217.24L85.4881 217.242C135.055 225.884 185.055 231.826 235.267 235.041C236.339 235.157 237.209 234.711 237.761 234.031C238.373 233.61 238.817 232.942 238.947 232.08L238.947 232.076L248.613 166.362C248.615 166.352 248.616 166.341 248.617 166.331C248.675 165.841 248.621 165.374 248.463 164.954C249.112 161.009 249.635 157.044 250.032 153.064C250.395 152.961 250.738 152.788 251.04 152.55C251.648 152.072 252.04 151.372 252.131 150.604C252.223 149.836 252.005 149.063 251.527 148.456L250.811 149.02L251.527 148.456C251.395 148.288 251.245 148.137 251.083 148.003L254.224 121.566C254.315 120.798 254.098 120.026 253.62 119.418C253.141 118.811 252.441 118.418 251.673 118.327C251.242 118.276 250.81 118.322 250.406 118.457L102.68 100.193L102.68 100.193L102.675 100.193C102.282 100.146 101.888 100.18 101.515 100.289C101.431 100.163 101.337 100.044 101.233 99.9335C100.721 99.3883 100.029 99.0927 99.3585 99.013C98.6885 98.9334 97.9446 99.0583 97.3213 99.4784C96.6722 99.916 96.2356 100.622 96.1525 101.512C95.0557 110.743 93.9728 119.846 92.1222 128.851ZM245.19 146.842C196.201 140.985 147.325 134.543 98.5635 127.517L98.6766 126.673L98.6787 126.656C98.7154 126.347 98.7021 126.037 98.6419 125.738C99.8475 119.168 100.829 112.566 101.562 105.9C101.7 105.937 101.841 105.965 101.984 105.982C101.985 105.982 101.986 105.982 101.987 105.983L248.058 124.042L245.374 146.635C245.309 146.7 245.248 146.769 245.19 146.842ZM240.15 176.839C240.14 176.881 240.133 176.924 240.128 176.967C240.017 177.896 240.306 178.684 240.827 179.243L233.495 229.089C184.983 225.9 136.673 220.161 88.765 211.898C91.1413 191.912 93.4935 172.525 97.3437 153.149C145.468 158.859 193.667 163.943 241.941 168.401C241.409 171.226 240.812 174.039 240.15 176.839Z" fill="#C6D7FE" stroke="#C6D7FE" stroke-width="2.28376" stroke-linejoin="round"/>
</svg>
