<svg width="301" height="300" viewBox="0 0 301 300" fill="none" xmlns="http://www.w3.org/2000/svg">
<path d="M74.9205 206.928C75.1886 207.126 75.3565 207.433 75.3774 207.768C75.4338 208.67 75.0982 209.437 74.5015 209.956C73.9362 210.449 73.2126 210.656 72.544 210.656C71.8737 210.656 71.1552 210.448 70.5827 209.976C70.0041 209.498 69.6291 208.79 69.6042 207.93C67.9981 196.954 69.2329 185.75 73.1914 175.387C73.2018 175.359 73.2132 175.333 73.2256 175.306C75.2292 171.072 78.2208 167.381 81.9486 164.543C85.6755 161.707 90.0291 159.807 94.6432 159.004C94.6443 159.003 94.6454 159.003 94.6465 159.003L94.8405 160.118C99.0381 159.36 103.296 158.983 107.561 158.993L74.9205 206.928ZM74.9205 206.928C74.3915 198.373 74.3608 189.028 76.8548 181.203C79.3722 173.304 84.4387 166.999 94.2786 164.604C101.483 163.612 108.753 163.171 116.024 163.287C118.781 163.442 121.516 162.725 123.843 161.238C126.177 159.747 127.979 157.557 128.995 154.98C129.029 154.895 129.052 154.806 129.064 154.716C129.478 151.622 128.984 148.474 127.642 145.656C126.3 142.837 124.168 140.47 121.505 138.841L121.499 138.838C114.923 134.87 110.087 128.567 107.957 121.189C106.343 113.576 109.203 105.826 114.456 100.716C119.7 95.6141 127.24 93.2187 134.989 96.1648C138.912 97.6731 142.258 100.382 144.551 103.905C146.841 107.423 147.963 111.573 147.757 115.765C147.353 120.531 145.381 124.966 142.675 129.141C139.963 133.325 136.561 137.179 133.356 140.807C132.081 142.207 132.561 143.947 133.489 144.888C133.958 145.364 134.615 145.729 135.362 145.776C136.149 145.826 136.918 145.512 137.506 144.842C142.681 138.998 148.404 131.844 151.416 124.151C154.451 116.399 154.758 108.015 148.962 99.9307L148.956 99.9225C146.828 97.0098 144.113 94.5758 140.985 92.7777C137.858 90.9795 134.388 89.8572 130.8 89.4832C127.212 89.1091 123.586 89.4916 120.155 90.6061C116.724 91.7206 113.565 93.5422 110.881 95.9532L110.867 95.9663C108.033 98.6019 105.766 101.788 104.204 105.329C102.643 108.871 101.82 112.693 101.786 116.563C101.751 120.434 102.507 124.27 104.005 127.839C105.504 131.407 107.714 134.633 110.501 137.318L110.505 137.322C112.064 138.81 113.819 140.05 115.485 141.228L115.517 141.25C117.324 142.528 119.025 143.734 120.466 145.175L120.478 145.187C122.668 147.311 123.858 149.982 123.747 152.243C123.692 153.355 123.326 154.373 122.605 155.229C121.889 156.079 120.772 156.831 119.115 157.326L74.9205 206.928ZM135.248 158.014C135.656 158.422 136.173 158.695 136.731 158.805C136.841 158.84 136.958 158.859 137.08 158.859C139.227 158.859 141.365 158.869 143.174 159.432C144.883 159.964 146.242 160.972 146.954 163.03C147.937 167.275 148.279 171.644 147.969 175.991C147.967 176.018 147.966 176.045 147.966 176.071V207.276C147.966 208.042 148.271 208.777 148.812 209.318C149.354 209.86 150.088 210.164 150.854 210.164C151.62 210.164 152.355 209.86 152.897 209.318C153.439 208.777 153.743 208.042 153.743 207.276V170.086C154.215 165.516 152.989 160.931 150.295 157.206C150.238 157.126 150.17 157.054 150.094 156.992C146.485 154.049 141.864 152.646 137.23 153.083C136.486 153.099 135.775 153.401 135.248 153.929C134.706 154.47 134.402 155.205 134.402 155.971C134.402 156.737 134.706 157.472 135.248 158.014ZM216.401 156.845C216.366 156.822 216.329 156.802 216.291 156.783C210.684 154.036 204.897 151.673 198.97 149.71C193.354 147.378 188.571 143.408 185.242 138.319C181.906 133.218 180.186 127.229 180.309 121.135C180.309 121.126 180.309 121.117 180.309 121.108C180.303 119.636 180.735 118.195 181.548 116.967C182.362 115.74 183.521 114.782 184.88 114.213C186.238 113.645 187.735 113.493 189.18 113.775C190.625 114.058 191.954 114.763 192.999 115.801C193.023 115.825 193.049 115.848 193.076 115.871C195.961 118.254 196.961 121.592 196.83 125.183C196.697 128.795 195.413 132.562 193.85 135.554C192.969 137.206 193.863 138.766 194.993 139.436C195.568 139.777 196.296 139.96 197.033 139.81C197.806 139.653 198.467 139.151 198.877 138.359L198.881 138.352C201.083 134.019 202.664 128.754 202.526 123.708C202.387 118.638 200.501 113.744 195.741 110.369C194.004 108.987 191.939 108.075 189.747 107.721C187.544 107.366 185.286 107.586 183.193 108.362C181.1 109.137 179.244 110.44 177.803 112.145C176.363 113.85 175.388 115.898 174.974 118.091C174.972 118.098 174.971 118.104 174.97 118.11C174.969 118.118 174.968 118.125 174.966 118.133C174.206 123.179 174.633 128.332 176.213 133.184C177.791 138.032 180.476 142.446 184.057 146.076C187.932 150.167 192.644 153.373 197.872 155.475C197.903 155.488 197.935 155.499 197.968 155.509C203.889 157.292 209.57 159.794 214.883 162.958C221.366 167.802 224.146 174.857 225.036 182.649C225.932 190.483 224.9 198.925 223.88 206.35C223.873 206.401 223.869 206.452 223.869 206.504C223.869 208.165 225.044 209.349 226.263 209.707C226.885 209.889 227.632 209.891 228.294 209.51C228.988 209.109 229.391 208.399 229.497 207.558C229.5 207.531 229.502 207.504 229.504 207.476C229.505 207.457 229.505 207.437 229.505 207.417V207.356C231.251 194.922 232.995 181.4 227.22 169.196C224.867 164.131 221.113 159.844 216.401 156.845ZM173.916 151.615C173.722 151.638 173.536 151.711 173.377 151.827C169.88 154.399 167.077 157.799 165.218 161.722C163.367 165.628 162.51 169.931 162.724 174.247C162.397 181.435 162.507 188.71 162.616 195.935L162.616 195.952C162.671 199.577 162.725 203.189 162.725 206.785C162.725 207.678 163.095 208.418 163.688 208.916C164.256 209.393 164.971 209.603 165.64 209.603C166.309 209.603 167.026 209.393 167.59 208.907C168.178 208.4 168.524 207.655 168.502 206.769V178.18C168.502 174.125 168.715 169.815 169.844 165.981C170.966 162.171 172.971 158.903 176.521 156.805C176.581 156.77 176.638 156.728 176.69 156.682C177.21 156.228 177.553 155.606 177.662 154.925C177.772 154.244 177.64 153.545 177.288 152.951C176.937 152.357 176.39 151.905 175.74 151.672C175.152 151.461 174.514 151.442 173.916 151.615Z" fill="#C6D7FE" stroke="#C6D7FE" stroke-width="2.26271" stroke-linejoin="round"/>
</svg>
