<svg width="20" height="20" viewBox="0 0 20 20" fill="none" xmlns="http://www.w3.org/2000/svg">
<path fill-rule="evenodd" clip-rule="evenodd" d="M3.11936 8.0427C3.11936 5.34266 5.30818 3.15384 8.00822 3.15384C10.7083 3.15384 12.8971 5.34266 12.8971 8.0427C12.8971 10.7427 10.7083 12.9316 8.00822 12.9316C5.30818 12.9316 3.11936 10.7427 3.11936 8.0427ZM8.00822 0.981018C4.10816 0.981018 0.946533 4.14264 0.946533 8.0427C0.946533 11.9428 4.10816 15.1044 8.00822 15.1044C9.55164 15.1044 10.9794 14.6092 12.1414 13.7691L17.1988 18.8266C17.6231 19.2509 18.311 19.2509 18.7353 18.8266C19.1595 18.4023 19.1595 17.7144 18.7353 17.2902L13.6866 12.2415C14.5558 11.0679 15.0699 9.61532 15.0699 8.0427C15.0699 4.14264 11.9083 0.981018 8.00822 0.981018Z" fill="#FCFCFD"/>
</svg>
