<svg width="97" height="32" viewBox="0 0 97 32" fill="none" xmlns="http://www.w3.org/2000/svg">
<path d="M6.11999 9.18667C7.05332 8.24 7.99999 7.38667 8.39999 7.56C9.06665 7.82667 8.39999 8.93333 7.99999 9.58667C7.66665 10.1467 4.18665 14.7733 4.18665 18C4.18665 19.7067 4.82665 21.12 5.99999 22C6.97332 22.72 8.29332 22.9467 9.49332 22.5867C10.92 22.1733 12.0933 20.72 13.5733 18.8933C15.1867 16.9067 17.3333 14.3067 19.0133 14.3067C21.1867 14.3067 21.2133 15.6533 21.3333 16.6667C16.32 17.5467 14.1867 21.5867 14.1867 23.8533C14.1867 26.12 16.1067 28 18.4667 28C20.6667 28 24.1867 26.2 24.72 19.84H28V16.5067H24.7067C24.5067 14.3067 23.2533 10.9067 19.3333 10.9067C16.3333 10.9067 13.76 13.4533 12.7467 14.6667C12 15.6667 9.99999 18 9.69332 18.32C9.33332 18.72 8.78665 19.44 8.21332 19.44C7.61332 19.44 7.25332 18.3333 7.73332 16.88C8.19999 15.4267 9.59999 13.0667 10.2 12.1867C11.24 10.6667 11.9333 9.62667 11.9333 7.81333C11.9333 4.92 9.74665 4 8.58665 4C6.82665 4 5.29332 5.33333 4.95999 5.66667C4.47999 6.14667 4.07998 6.54667 3.78665 6.90667L6.11999 9.18667ZM18.5067 24.7333C18.0933 24.7333 17.52 24.3867 17.52 23.7733C17.52 22.9733 18.4933 20.84 21.3333 20.0933C20.9467 23.68 19.44 24.7333 18.5067 24.7333Z" fill="#101828"/>
<path d="M35.4 23.5L39.8 9.1H43.86L48.26 23.5H45.46L41.54 10.8H42.06L38.2 23.5H35.4ZM38.04 20.5V17.96H45.64V20.5H38.04ZM50.2523 23.5V9.1H52.9723V20.96H59.1723V23.5H50.2523ZM61.0727 23.5V9.1H63.7927V20.96H69.9927V23.5H61.0727ZM74.9008 23.5V9.1H77.6208V23.5H74.9008ZM80.6188 23.5V9.1H83.3788L89.6388 18.7V9.1H92.3988V23.5H89.6388L83.3788 13.9V23.5H80.6188Z" fill="#101828"/>
</svg>
